<?xml version="1.0" encoding="UTF-8" standalone="no"?>
<svg
   svg:contrastcolor="11111f"
   svg:template="Contrast"
   svg:presentation="2.5"
   svg:layouttype="undefined"
   svg:specialfontid="undefined"
   svg:id1="001"
   svg:id2="281"
   svg:companyname="Kelen FIla"
   svg:companytagline="KelenFila votre partenaire de confiance"
   version="1.1"
   viewBox="0 35 302500 160000"
   id="svg1995"
   sodipodi:docname="kelen_fila.svg"
   width="302500"
   height="160000"
   inkscape:version="1.2 (dc2aedaf03, 2022-05-15)"
   inkscape:export-filename="kelen_fila_BLANC.png"
   inkscape:export-xdpi="96"
   inkscape:export-ydpi="96"
   xmlns:inkscape="http://www.inkscape.org/namespaces/inkscape"
   xmlns:sodipodi="http://sodipodi.sourceforge.net/DTD/sodipodi-0.dtd"
   xmlns="http://www.w3.org/2000/svg"
   xmlns:svg="http://www.w3.org/2000/svg">
  <defs
     id="defs1999" />
  <sodipodi:namedview
     id="namedview1997"
     pagecolor="#ffffff"
     bordercolor="#000000"
     borderopacity="0.25"
     inkscape:showpageshadow="2"
     inkscape:pageopacity="0.0"
     inkscape:pagecheckerboard="0"
     inkscape:deskcolor="#d1d1d1"
     showgrid="false"
     inkscape:zoom="0.42974779"
     inkscape:cx="67924.724"
     inkscape:cy="60756.566"
     inkscape:window-width="1920"
     inkscape:window-height="986"
     inkscape:window-x="-11"
     inkscape:window-y="-11"
     inkscape:window-maximized="1"
     inkscape:current-layer="g1965" />
  <g
     fill="#c1c6c8"
     fill-rule="nonzero"
     stroke="none"
     stroke-width="1"
     stroke-linecap="butt"
     stroke-linejoin="miter"
     stroke-miterlimit="10"
     stroke-dasharray="none"
     stroke-dashoffset="0"
     font-family="none"
     font-weight="none"
     font-size="none"
     text-anchor="none"
     style="mix-blend-mode:normal;fill:#262626;fill-opacity:1"
     id="g1965"
     transform="matrix(3.8749559,0,0,3.8749559,66409.388,59324.386)">
    <g
       data-paper-data="{&quot;isGlobalGroup&quot;:true,&quot;bounds&quot;:{&quot;x&quot;:84.5287005246373,&quot;y&quot;:151.94915035521512,&quot;width&quot;:380.9425989507255,&quot;height&quot;:166.10169928956975}}"
       id="g1963"
       style="fill:#262626;fill-opacity:1">
      <g
         data-paper-data="{&quot;isSecondaryText&quot;:true}"
         id="g1937"
         style="fill:#262626;fill-opacity:1"
         transform="translate(-34.465146)">
        <path
           d="m 287.43066,298.11822 c 0,-0.1591 -0.12927,-0.28836 -0.30328,-0.28836 -0.12927,0 -0.23367,0.0895 -0.26847,0.21378 l -0.84022,2.49581 c 0,0.005 -0.005,0.0149 -0.01,0.0149 -0.01,0 -0.01,-0.01 -0.0149,-0.0149 l -0.83525,-2.49581 c -0.0398,-0.11932 -0.14418,-0.21378 -0.27345,-0.21378 -0.17401,0 -0.2983,0.12927 -0.2983,0.28836 0,0.0398 0.01,0.0746 0.0199,0.10441 l 1.11367,3.17197 c 0.0447,0.12927 0.17401,0.1939 0.30825,0.1939 0.14418,0 0.22373,-0.0845 0.2635,-0.1939 l 1.11864,-3.17197 c 0.01,-0.0298 0.0199,-0.0646 0.0199,-0.10441 z"
           data-paper-data="{&quot;glyphName&quot;:&quot;V&quot;,&quot;glyphIndex&quot;:9,&quot;firstGlyphOfWord&quot;:true,&quot;word&quot;:2}"
           id="path1885"
           style="fill:#262626;fill-opacity:1" />
        <path
           d="m 288.5261,299.71415 c 0,1.05401 0.85017,1.90418 1.90418,1.90418 1.05401,0 1.90418,-0.85017 1.90418,-1.90418 0,-1.05401 -0.85017,-1.90418 -1.90418,-1.90418 -1.05401,0 -1.90418,0.85017 -1.90418,1.90418 z m 0.57672,0 c 0,-0.73085 0.59661,-1.32248 1.32745,-1.32248 0.73085,0 1.32248,0.59164 1.32248,1.32248 0,0.73085 -0.59164,1.32745 -1.32248,1.32745 -0.73085,0 -1.32745,-0.59661 -1.32745,-1.32745 z"
           data-paper-data="{&quot;glyphName&quot;:&quot;O&quot;,&quot;glyphIndex&quot;:10,&quot;word&quot;:2}"
           id="path1887"
           style="fill:#262626;fill-opacity:1" />
        <path
           d="m 295.65723,298.14805 c 0,-0.1591 -0.20384,-0.2983 -0.27842,-0.2983 h -1.81468 c -0.14418,0 -0.27842,0.16904 -0.27842,0.2983 0,0.14418 0.12927,0.28339 0.27842,0.28339 h 0.58169 c 0.0249,0 0.0298,0.0149 0.0298,0.0298 v 2.86869 c 0,0.1591 0.12927,0.26847 0.29333,0.26847 0.15412,0 0.28836,-0.11435 0.28836,-0.26847 v -2.85378 c 0,-0.0497 0.0298,-0.0448 0.0348,-0.0448 h 0.58667 c 0.14418,0 0.27842,-0.13921 0.27842,-0.28339 z"
           data-paper-data="{&quot;glyphName&quot;:&quot;T&quot;,&quot;glyphIndex&quot;:11,&quot;word&quot;:2}"
           id="path1889"
           style="fill:#262626;fill-opacity:1" />
        <path
           d="m 299.33798,301.5537 c 0.0845,-0.0497 0.13424,-0.13921 0.13424,-0.23367 0,-0.0398 -0.01,-0.0795 -0.0298,-0.11932 l -0.66124,-1.15344 c 0,-0.005 -0.005,-0.01 -0.005,-0.0149 0,-0.01 0.005,-0.0149 0.0149,-0.0199 0.36294,-0.2287 0.56181,-0.57672 0.56181,-1.02915 0,-0.7209 -0.47232,-1.13356 -1.19819,-1.13356 h -0.64633 c -0.20881,0 -0.34802,0.16904 -0.34802,0.38282 v 2.96813 c 0,0.19887 0.0646,0.39774 0.28339,0.39774 0.21378,0 0.2983,-0.17401 0.2983,-0.39277 v -1.06892 c 0,-0.0199 0.01,-0.0298 0.0298,-0.0298 h 0.35797 c 0.0298,0 0.0398,0.01 0.0497,0.0298 l 0.68113,1.20813 c 0.0845,0.15412 0.15412,0.25853 0.30825,0.25853 0.0646,0 0.11932,-0.0199 0.16904,-0.0497 z m -1.59593,-3.08745 c 0,-0.0249 0.01,-0.0398 0.0348,-0.0398 h 0.41763 c 0.47232,0 0.58667,0.30825 0.58667,0.55683 0,0.28339 -0.11435,0.58667 -0.58667,0.58667 h -0.41763 c -0.0249,0 -0.0348,-0.01 -0.0348,-0.0348 z"
           data-paper-data="{&quot;glyphName&quot;:&quot;R&quot;,&quot;glyphIndex&quot;:12,&quot;word&quot;:2}"
           id="path1891"
           style="fill:#262626;fill-opacity:1" />
        <path
           d="m 302.94912,301.29019 c 0,-0.1591 -0.13424,-0.28836 -0.28339,-0.28836 h -1.05401 c -0.0249,0 -0.0298,-0.0149 -0.0298,-0.0298 v -0.9496 c 0,-0.0149 0.01,-0.0249 0.0298,-0.0249 h 1.05401 c 0.1591,0 0.28339,-0.12927 0.28339,-0.29333 0,-0.1591 -0.13424,-0.28836 -0.28339,-0.28836 h -1.05401 c -0.0199,0 -0.0298,-0.005 -0.0298,-0.0249 v -0.93469 c 0,-0.0149 0.01,-0.0249 0.0298,-0.0249 h 1.05401 c 0.16407,0 0.2635,-0.11932 0.2635,-0.2635 0,-0.21378 -0.12429,-0.31819 -0.2635,-0.31819 h -1.38214 c -0.21876,0 -0.28339,0.18893 -0.28339,0.40768 v 2.92835 c 0,0.20384 0.0597,0.39277 0.28836,0.39277 h 1.32745 c 0.17898,0 0.33311,-0.0994 0.33311,-0.28836 z"
           data-paper-data="{&quot;glyphName&quot;:&quot;E&quot;,&quot;glyphIndex&quot;:13,&quot;lastGlyphOfWord&quot;:true,&quot;word&quot;:2}"
           id="path1893"
           style="fill:#262626;fill-opacity:1" />
        <path
           d="m 307.22315,301.59844 c 0.16407,0 0.29333,-0.12927 0.29333,-0.29333 v -1.16339 c 0,-0.0199 0.01,-0.0298 0.0298,-0.0298 h 0.37785 c 0.63638,0 1.08384,-0.51209 1.08384,-1.1435 0,-0.63141 -0.44746,-1.11864 -1.08384,-1.11864 h -0.63141 c -0.21876,0 -0.35299,0.16904 -0.35299,0.38282 v 3.07253 c 0,0.1591 0.11932,0.29333 0.28339,0.29333 z m 0.29334,-3.13219 c 0,-0.0249 0.0149,-0.0398 0.0398,-0.0398 h 0.30825 c 0.44746,0 0.56678,0.32813 0.56678,0.54192 0,0.21876 -0.11932,0.56678 -0.56678,0.56678 h -0.30825 c -0.0298,0 -0.0398,-0.01 -0.0398,-0.0298 z"
           data-paper-data="{&quot;glyphName&quot;:&quot;P&quot;,&quot;glyphIndex&quot;:14,&quot;firstGlyphOfWord&quot;:true,&quot;word&quot;:3}"
           id="path1895"
           style="fill:#262626;fill-opacity:1" />
        <path
           d="m 312.85282,301.31505 c 0,-0.0398 -0.01,-0.0746 -0.0199,-0.10441 -0.59661,-1.62079 -0.92474,-2.48587 -1.17333,-3.11231 -0.0547,-0.16407 -0.14915,-0.25356 -0.32316,-0.25356 -0.14418,0 -0.2287,0.0895 -0.26847,0.1939 l -1.14847,3.06259 c -0.0249,0.0547 -0.0597,0.14418 -0.0597,0.1939 0,0.14915 0.10938,0.30328 0.2983,0.30328 0.12927,0 0.21876,-0.0795 0.27345,-0.20881 l 0.20384,-0.54689 c 0.005,-0.0199 0.0199,-0.0298 0.0448,-0.0298 h 1.34734 c 0.0547,0.005 0.16904,0.33808 0.21378,0.46237 l 0.0398,0.11435 c 0.0448,0.12429 0.14418,0.20881 0.26847,0.20881 0.17401,0 0.30328,-0.12429 0.30328,-0.28339 z m -1.49649,-2.42621 c 0.005,0 0.01,0.0149 0.01,0.0199 l 0.47729,1.31254 c 0.005,0.005 0.005,0.01 0.005,0.0149 0,0.0149 -0.0149,0.0249 -0.0249,0.0249 h -0.93966 c -0.0149,0 -0.0249,-0.01 -0.0249,-0.0199 0,-0.005 0,-0.0149 0.005,-0.0199 l 0.47729,-1.31254 c 0.005,-0.005 0.005,-0.0199 0.0149,-0.0199 z"
           data-paper-data="{&quot;glyphName&quot;:&quot;A&quot;,&quot;glyphIndex&quot;:15,&quot;word&quot;:3}"
           id="path1897"
           style="fill:#262626;fill-opacity:1" />
        <path
           d="m 316.52859,301.5537 c 0.0845,-0.0497 0.13424,-0.13921 0.13424,-0.23367 0,-0.0398 -0.01,-0.0795 -0.0298,-0.11932 l -0.66124,-1.15344 c 0,-0.005 -0.005,-0.01 -0.005,-0.0149 0,-0.01 0.005,-0.0149 0.0149,-0.0199 0.36294,-0.2287 0.56181,-0.57672 0.56181,-1.02915 0,-0.7209 -0.47232,-1.13356 -1.19819,-1.13356 H 314.699 c -0.20881,0 -0.34802,0.16904 -0.34802,0.38282 v 2.96813 c 0,0.19887 0.0646,0.39774 0.28339,0.39774 0.21378,0 0.2983,-0.17401 0.2983,-0.39277 v -1.06892 c 0,-0.0199 0.01,-0.0298 0.0298,-0.0298 h 0.35797 c 0.0298,0 0.0398,0.01 0.0497,0.0298 l 0.68113,1.20813 c 0.0845,0.15412 0.15412,0.25853 0.30825,0.25853 0.0646,0 0.11932,-0.0199 0.16904,-0.0497 z m -1.59592,-3.08745 c 0,-0.0249 0.01,-0.0398 0.0348,-0.0398 h 0.41763 c 0.47232,0 0.58667,0.30825 0.58667,0.55683 0,0.28339 -0.11435,0.58667 -0.58667,0.58667 h -0.41763 c -0.0249,0 -0.0348,-0.01 -0.0348,-0.0348 z"
           data-paper-data="{&quot;glyphName&quot;:&quot;R&quot;,&quot;glyphIndex&quot;:16,&quot;word&quot;:3}"
           id="path1899"
           style="fill:#262626;fill-opacity:1" />
        <path
           d="m 320.48278,298.14805 c 0,-0.1591 -0.20384,-0.2983 -0.27842,-0.2983 h -1.81468 c -0.14418,0 -0.27842,0.16904 -0.27842,0.2983 0,0.14418 0.12927,0.28339 0.27842,0.28339 h 0.58169 c 0.0249,0 0.0298,0.0149 0.0298,0.0298 v 2.86869 c 0,0.1591 0.12927,0.26847 0.29333,0.26847 0.15412,0 0.28836,-0.11435 0.28836,-0.26847 v -2.85378 c 0,-0.0497 0.0298,-0.0448 0.0348,-0.0448 h 0.58667 c 0.14418,0 0.27842,-0.13921 0.27842,-0.28339 z"
           data-paper-data="{&quot;glyphName&quot;:&quot;T&quot;,&quot;glyphIndex&quot;:17,&quot;word&quot;:3}"
           id="path1901"
           style="fill:#262626;fill-opacity:1" />
        <path
           d="m 323.9398,301.29019 c 0,-0.1591 -0.13424,-0.28836 -0.28339,-0.28836 h -1.05401 c -0.0249,0 -0.0298,-0.0149 -0.0298,-0.0298 v -0.9496 c 0,-0.0149 0.01,-0.0249 0.0298,-0.0249 h 1.05401 c 0.1591,0 0.28339,-0.12927 0.28339,-0.29333 0,-0.1591 -0.13424,-0.28836 -0.28339,-0.28836 h -1.05401 c -0.0199,0 -0.0298,-0.005 -0.0298,-0.0249 v -0.93469 c 0,-0.0149 0.01,-0.0249 0.0298,-0.0249 h 1.05401 c 0.16407,0 0.2635,-0.11932 0.2635,-0.2635 0,-0.21378 -0.12429,-0.31819 -0.2635,-0.31819 h -1.38214 c -0.21876,0 -0.28339,0.18893 -0.28339,0.40768 v 2.92835 c 0,0.20384 0.0597,0.39277 0.28836,0.39277 h 1.32745 c 0.17898,0 0.33311,-0.0994 0.33311,-0.28836 z"
           data-paper-data="{&quot;glyphName&quot;:&quot;E&quot;,&quot;glyphIndex&quot;:18,&quot;word&quot;:3}"
           id="path1903"
           style="fill:#262626;fill-opacity:1" />
        <path
           d="m 325.84066,297.82986 c -0.22373,0 -0.3878,0.17898 -0.3878,0.40271 v 3.08745 c 0,0.1591 0.12927,0.27842 0.29333,0.27842 0.16407,0 0.28339,-0.11435 0.28339,-0.27842 v -2.39141 c 0,-0.0249 0.0149,-0.0398 0.0348,-0.0398 0.01,0 0.0199,0.005 0.0298,0.0249 l 1.48158,2.45604 c 0.0646,0.10938 0.18893,0.2287 0.38282,0.2287 0.24859,0 0.39277,-0.20384 0.39277,-0.39774 v -3.08745 c 0,-0.16407 -0.12927,-0.28339 -0.29333,-0.28339 -0.16407,0 -0.28836,0.11932 -0.28836,0.27842 v 2.40632 c 0,0.0249 -0.01,0.0398 -0.0298,0.0398 -0.01,0 -0.0199,-0.01 -0.0298,-0.0298 l -1.48655,-2.46598 c -0.0646,-0.10441 -0.1939,-0.22373 -0.38282,-0.2287 z"
           data-paper-data="{&quot;glyphName&quot;:&quot;N&quot;,&quot;glyphIndex&quot;:19,&quot;word&quot;:3}"
           id="path1905"
           style="fill:#262626;fill-opacity:1" />
        <path
           d="m 332.79281,301.31505 c 0,-0.0398 -0.01,-0.0746 -0.0199,-0.10441 -0.59661,-1.62079 -0.92474,-2.48587 -1.17333,-3.11231 -0.0547,-0.16407 -0.14915,-0.25356 -0.32316,-0.25356 -0.14418,0 -0.2287,0.0895 -0.26847,0.1939 l -1.14847,3.06259 c -0.0249,0.0547 -0.0597,0.14418 -0.0597,0.1939 0,0.14915 0.10938,0.30328 0.2983,0.30328 0.12927,0 0.21876,-0.0795 0.27345,-0.20881 l 0.20384,-0.54689 c 0.005,-0.0199 0.0199,-0.0298 0.0447,-0.0298 h 1.34734 c 0.0547,0.005 0.16904,0.33808 0.21378,0.46237 l 0.0398,0.11435 c 0.0447,0.12429 0.14418,0.20881 0.26847,0.20881 0.17401,0 0.30328,-0.12429 0.30328,-0.28339 z m -1.49649,-2.42621 c 0.005,0 0.01,0.0149 0.01,0.0199 l 0.47729,1.31254 c 0.005,0.005 0.005,0.01 0.005,0.0149 0,0.0149 -0.0149,0.0249 -0.0249,0.0249 H 330.824 c -0.0149,0 -0.0249,-0.01 -0.0249,-0.0199 0,-0.005 0,-0.0149 0.005,-0.0199 l 0.47729,-1.31254 c 0.005,-0.005 0.005,-0.0199 0.0149,-0.0199 z"
           data-paper-data="{&quot;glyphName&quot;:&quot;A&quot;,&quot;glyphIndex&quot;:20,&quot;word&quot;:3}"
           id="path1907"
           style="fill:#262626;fill-opacity:1" />
        <path
           d="m 334.58429,301.59844 c 0.16407,0 0.28836,-0.12429 0.28836,-0.27842 v -3.20677 c 0,-0.16407 -0.12429,-0.28339 -0.28836,-0.28339 -0.1591,0 -0.28836,0.13424 -0.28836,0.28339 v 3.20677 c 0,0.1591 0.12927,0.27842 0.28836,0.27842 z"
           data-paper-data="{&quot;glyphName&quot;:&quot;I&quot;,&quot;glyphIndex&quot;:21,&quot;word&quot;:3}"
           id="path1909"
           style="fill:#262626;fill-opacity:1" />
        <path
           d="m 338.56334,301.5537 c 0.0845,-0.0497 0.13424,-0.13921 0.13424,-0.23367 0,-0.0398 -0.01,-0.0795 -0.0298,-0.11932 l -0.66124,-1.15344 c 0,-0.005 -0.005,-0.01 -0.005,-0.0149 0,-0.01 0.005,-0.0149 0.0149,-0.0199 0.36294,-0.2287 0.56181,-0.57672 0.56181,-1.02915 0,-0.7209 -0.47232,-1.13356 -1.19819,-1.13356 h -0.64633 c -0.20881,0 -0.34802,0.16904 -0.34802,0.38282 v 2.96813 c 0,0.19887 0.0646,0.39774 0.28339,0.39774 0.21378,0 0.2983,-0.17401 0.2983,-0.39277 v -1.06892 c 0,-0.0199 0.01,-0.0298 0.0298,-0.0298 h 0.35797 c 0.0298,0 0.0398,0.01 0.0497,0.0298 l 0.68113,1.20813 c 0.0845,0.15412 0.15412,0.25853 0.30825,0.25853 0.0646,0 0.11932,-0.0199 0.16904,-0.0497 z m -1.59593,-3.08745 c 0,-0.0249 0.01,-0.0398 0.0348,-0.0398 h 0.41763 c 0.47232,0 0.58667,0.30825 0.58667,0.55683 0,0.28339 -0.11435,0.58667 -0.58667,0.58667 h -0.41763 c -0.0249,0 -0.0348,-0.01 -0.0348,-0.0348 z"
           data-paper-data="{&quot;glyphName&quot;:&quot;R&quot;,&quot;glyphIndex&quot;:22,&quot;word&quot;:3}"
           id="path1911"
           style="fill:#262626;fill-opacity:1" />
        <path
           d="m 342.17448,301.29019 c 0,-0.1591 -0.13424,-0.28836 -0.28339,-0.28836 h -1.05401 c -0.0249,0 -0.0298,-0.0149 -0.0298,-0.0298 v -0.9496 c 0,-0.0149 0.01,-0.0249 0.0298,-0.0249 h 1.05401 c 0.1591,0 0.28339,-0.12927 0.28339,-0.29333 0,-0.1591 -0.13424,-0.28836 -0.28339,-0.28836 h -1.05401 c -0.0199,0 -0.0298,-0.005 -0.0298,-0.0249 v -0.93469 c 0,-0.0149 0.01,-0.0249 0.0298,-0.0249 h 1.05401 c 0.16407,0 0.2635,-0.11932 0.2635,-0.2635 0,-0.21378 -0.12429,-0.31819 -0.2635,-0.31819 h -1.38214 c -0.21876,0 -0.28339,0.18893 -0.28339,0.40768 v 2.92835 c 0,0.20384 0.0597,0.39277 0.28836,0.39277 h 1.32745 c 0.17898,0 0.33311,-0.0994 0.33311,-0.28836 z"
           data-paper-data="{&quot;glyphName&quot;:&quot;E&quot;,&quot;glyphIndex&quot;:23,&quot;lastGlyphOfWord&quot;:true,&quot;word&quot;:3}"
           id="path1913"
           style="fill:#262626;fill-opacity:1" />
        <path
           d="m 347.3484,301.57855 c 1.03412,0 1.8644,-0.83525 1.8644,-1.8644 0,-1.01921 -0.83028,-1.8644 -1.8644,-1.8644 h -0.87005 c -0.17898,0 -0.31322,0.12927 -0.31322,0.31322 v 3.1322 c 0,0.1591 0.14418,0.28339 0.30328,0.28339 z m 0.01,-3.14711 c 0.73085,0 1.27774,0.55683 1.27774,1.28271 0,0.7209 -0.56181,1.28768 -1.28768,1.28768 h -0.57175 c -0.0249,0 -0.0298,-0.01 -0.0298,-0.0298 v -2.5157 c 0,-0.0149 0.01,-0.0249 0.0298,-0.0249 z"
           data-paper-data="{&quot;glyphName&quot;:&quot;D&quot;,&quot;glyphIndex&quot;:24,&quot;firstGlyphOfWord&quot;:true,&quot;word&quot;:4}"
           id="path1915"
           style="fill:#262626;fill-opacity:1" />
        <path
           d="m 352.66982,301.29019 c 0,-0.1591 -0.13424,-0.28836 -0.28339,-0.28836 h -1.05401 c -0.0249,0 -0.0298,-0.0149 -0.0298,-0.0298 v -0.9496 c 0,-0.0149 0.01,-0.0249 0.0298,-0.0249 h 1.05401 c 0.1591,0 0.28339,-0.12927 0.28339,-0.29333 0,-0.1591 -0.13424,-0.28836 -0.28339,-0.28836 h -1.05401 c -0.0199,0 -0.0298,-0.005 -0.0298,-0.0249 v -0.93469 c 0,-0.0149 0.01,-0.0249 0.0298,-0.0249 h 1.05401 c 0.16407,0 0.2635,-0.11932 0.2635,-0.2635 0,-0.21378 -0.12429,-0.31819 -0.2635,-0.31819 h -1.38214 c -0.21876,0 -0.28339,0.18893 -0.28339,0.40768 v 2.92835 c 0,0.20384 0.0597,0.39277 0.28836,0.39277 h 1.32745 c 0.17898,0 0.33311,-0.0994 0.33311,-0.28836 z"
           data-paper-data="{&quot;glyphName&quot;:&quot;E&quot;,&quot;glyphIndex&quot;:25,&quot;lastGlyphOfWord&quot;:true,&quot;word&quot;:4}"
           id="path1917"
           style="fill:#262626;fill-opacity:1" />
        <path
           d="m 358.52487,301.61833 c 0.71593,0 1.1087,-0.33808 1.18327,-0.40271 0.0746,-0.0646 0.1591,-0.13921 0.1591,-0.27842 0,-0.1591 -0.12927,-0.28836 -0.28836,-0.28836 -0.0945,0 -0.13921,0.0348 -0.21876,0.0994 -0.2287,0.18893 -0.53198,0.28836 -0.83525,0.29333 -0.6861,-0.0199 -1.32745,-0.62644 -1.32745,-1.32248 0,-0.73085 0.57175,-1.31254 1.32248,-1.32745 0.30825,0 0.61152,0.10441 0.84022,0.29333 0.0795,0.0696 0.12429,0.0945 0.21876,0.0945 0.1591,0 0.28836,-0.12429 0.28836,-0.28836 0,-0.12927 -0.0845,-0.21378 -0.15412,-0.27345 -0.0746,-0.0646 -0.47232,-0.40768 -1.18825,-0.40768 -1.05401,0 -1.90915,0.86011 -1.90915,1.90915 0,1.04407 0.86011,1.8992 1.90915,1.8992 z"
           data-paper-data="{&quot;glyphName&quot;:&quot;C&quot;,&quot;glyphIndex&quot;:26,&quot;firstGlyphOfWord&quot;:true,&quot;word&quot;:5}"
           id="path1919"
           style="fill:#262626;fill-opacity:1" />
        <path
           d="m 361.34551,299.71415 c 0,1.05401 0.85017,1.90418 1.90418,1.90418 1.05401,0 1.90418,-0.85017 1.90418,-1.90418 0,-1.05401 -0.85017,-1.90418 -1.90418,-1.90418 -1.05401,0 -1.90418,0.85017 -1.90418,1.90418 z m 0.57672,0 c 0,-0.73085 0.59661,-1.32248 1.32745,-1.32248 0.73085,0 1.32248,0.59164 1.32248,1.32248 0,0.73085 -0.59164,1.32745 -1.32248,1.32745 -0.73085,0 -1.32745,-0.59661 -1.32745,-1.32745 z"
           data-paper-data="{&quot;glyphName&quot;:&quot;O&quot;,&quot;glyphIndex&quot;:27,&quot;word&quot;:5}"
           id="path1921"
           style="fill:#262626;fill-opacity:1" />
        <path
           d="m 367.04975,297.82986 c -0.22373,0 -0.3878,0.17898 -0.3878,0.40271 v 3.08745 c 0,0.1591 0.12927,0.27842 0.29333,0.27842 0.16407,0 0.28339,-0.11435 0.28339,-0.27842 v -2.39141 c 0,-0.0249 0.0149,-0.0398 0.0348,-0.0398 0.01,0 0.0199,0.005 0.0298,0.0249 l 1.48158,2.45604 c 0.0646,0.10938 0.18893,0.2287 0.38282,0.2287 0.24859,0 0.39277,-0.20384 0.39277,-0.39774 v -3.08745 c 0,-0.16407 -0.12927,-0.28339 -0.29333,-0.28339 -0.16407,0 -0.28836,0.11932 -0.28836,0.27842 v 2.40632 c 0,0.0249 -0.01,0.0398 -0.0298,0.0398 -0.01,0 -0.0199,-0.01 -0.0298,-0.0298 l -1.48655,-2.46598 c -0.0646,-0.10441 -0.1939,-0.22373 -0.38282,-0.2287 z"
           data-paper-data="{&quot;glyphName&quot;:&quot;N&quot;,&quot;glyphIndex&quot;:28,&quot;word&quot;:5}"
           id="path1923"
           style="fill:#262626;fill-opacity:1" />
        <path
           d="m 373.02247,299.70421 c 0,-0.1591 -0.13424,-0.28836 -0.28339,-0.28836 h -1.05401 c -0.0199,0 -0.0298,-0.005 -0.0298,-0.0298 v -0.92474 c 0,-0.0149 0.005,-0.0298 0.0298,-0.0298 h 0.93966 c 0.24362,0 0.38282,-0.0994 0.38282,-0.31322 0,-0.14915 -0.12927,-0.26847 -0.26847,-0.26847 h -1.38712 c -0.14915,0 -0.27842,0.10938 -0.27842,0.28836 v 3.07253 c 0,0.22373 0.0696,0.39774 0.29333,0.39774 0.22373,0 0.28836,-0.17898 0.28836,-0.39774 v -1.18327 c 0,-0.0199 0.01,-0.0298 0.0298,-0.0298 h 1.05401 c 0.1591,0 0.28339,-0.12927 0.28339,-0.29333 z"
           data-paper-data="{&quot;glyphName&quot;:&quot;F&quot;,&quot;glyphIndex&quot;:29,&quot;word&quot;:5}"
           id="path1925"
           style="fill:#262626;fill-opacity:1" />
        <path
           d="m 374.80898,301.59844 c 0.16407,0 0.28836,-0.12429 0.28836,-0.27842 v -3.20677 c 0,-0.16407 -0.12429,-0.28339 -0.28836,-0.28339 -0.1591,0 -0.28836,0.13424 -0.28836,0.28339 v 3.20677 c 0,0.1591 0.12927,0.27842 0.28836,0.27842 z"
           data-paper-data="{&quot;glyphName&quot;:&quot;I&quot;,&quot;glyphIndex&quot;:30,&quot;word&quot;:5}"
           id="path1927"
           style="fill:#262626;fill-opacity:1" />
        <path
           d="m 379.54373,301.31505 c 0,-0.0398 -0.01,-0.0746 -0.0199,-0.10441 -0.59661,-1.62079 -0.92474,-2.48587 -1.17333,-3.11231 -0.0547,-0.16407 -0.14915,-0.25356 -0.32316,-0.25356 -0.14418,0 -0.2287,0.0895 -0.26847,0.1939 l -1.14847,3.06259 c -0.0249,0.0547 -0.0597,0.14418 -0.0597,0.1939 0,0.14915 0.10938,0.30328 0.2983,0.30328 0.12927,0 0.21876,-0.0795 0.27345,-0.20881 l 0.20384,-0.54689 c 0.005,-0.0199 0.0199,-0.0298 0.0447,-0.0298 h 1.34734 c 0.0547,0.005 0.16904,0.33808 0.21378,0.46237 l 0.0398,0.11435 c 0.0448,0.12429 0.14418,0.20881 0.26847,0.20881 0.17401,0 0.30328,-0.12429 0.30328,-0.28339 z m -1.49649,-2.42621 c 0.005,0 0.01,0.0149 0.01,0.0199 l 0.47729,1.31254 c 0.005,0.005 0.005,0.01 0.005,0.0149 0,0.0149 -0.0149,0.0249 -0.0249,0.0249 h -0.93966 c -0.0149,0 -0.0249,-0.01 -0.0249,-0.0199 0,-0.005 0,-0.0149 0.005,-0.0199 l 0.47729,-1.31254 c 0.005,-0.005 0.005,-0.0199 0.0149,-0.0199 z"
           data-paper-data="{&quot;glyphName&quot;:&quot;A&quot;,&quot;glyphIndex&quot;:31,&quot;word&quot;:5}"
           id="path1929"
           style="fill:#262626;fill-opacity:1" />
        <path
           d="m 381.43465,297.82986 c -0.22373,0 -0.3878,0.17898 -0.3878,0.40271 v 3.08745 c 0,0.1591 0.12927,0.27842 0.29333,0.27842 0.16407,0 0.28339,-0.11435 0.28339,-0.27842 v -2.39141 c 0,-0.0249 0.0149,-0.0398 0.0348,-0.0398 0.01,0 0.0199,0.005 0.0298,0.0249 l 1.48158,2.45604 c 0.0646,0.10938 0.18893,0.2287 0.38282,0.2287 0.24859,0 0.39277,-0.20384 0.39277,-0.39774 v -3.08745 c 0,-0.16407 -0.12927,-0.28339 -0.29333,-0.28339 -0.16407,0 -0.28836,0.11932 -0.28836,0.27842 v 2.40632 c 0,0.0249 -0.01,0.0398 -0.0298,0.0398 -0.01,0 -0.0199,-0.01 -0.0298,-0.0298 l -1.48655,-2.46598 c -0.0646,-0.10441 -0.1939,-0.22373 -0.38282,-0.2287 z"
           data-paper-data="{&quot;glyphName&quot;:&quot;N&quot;,&quot;glyphIndex&quot;:32,&quot;word&quot;:5}"
           id="path1931"
           style="fill:#262626;fill-opacity:1" />
        <path
           d="m 387.32285,301.61833 c 0.71593,0 1.1087,-0.33808 1.18327,-0.40271 0.0746,-0.0646 0.1591,-0.13921 0.1591,-0.27842 0,-0.1591 -0.12927,-0.28836 -0.28836,-0.28836 -0.0945,0 -0.13921,0.0348 -0.21876,0.0994 -0.2287,0.18893 -0.53198,0.28836 -0.83525,0.29333 -0.6861,-0.0199 -1.32745,-0.62644 -1.32745,-1.32248 0,-0.73085 0.57175,-1.31254 1.32248,-1.32745 0.30825,0 0.61152,0.10441 0.84022,0.29333 0.0795,0.0696 0.12429,0.0945 0.21876,0.0945 0.1591,0 0.28836,-0.12429 0.28836,-0.28836 0,-0.12927 -0.0845,-0.21378 -0.15412,-0.27345 -0.0746,-0.0646 -0.47232,-0.40768 -1.18825,-0.40768 -1.05401,0 -1.90915,0.86011 -1.90915,1.90915 0,1.04407 0.86011,1.8992 1.90915,1.8992 z"
           data-paper-data="{&quot;glyphName&quot;:&quot;C&quot;,&quot;glyphIndex&quot;:33,&quot;word&quot;:5}"
           id="path1933"
           style="fill:#262626;fill-opacity:1" />
        <path
           d="m 392.1272,301.29019 c 0,-0.1591 -0.13424,-0.28836 -0.28339,-0.28836 h -1.05401 c -0.0249,0 -0.0298,-0.0149 -0.0298,-0.0298 v -0.9496 c 0,-0.0149 0.01,-0.0249 0.0298,-0.0249 h 1.05401 c 0.1591,0 0.28339,-0.12927 0.28339,-0.29333 0,-0.1591 -0.13424,-0.28836 -0.28339,-0.28836 h -1.05401 c -0.0199,0 -0.0298,-0.005 -0.0298,-0.0249 v -0.93469 c 0,-0.0149 0.01,-0.0249 0.0298,-0.0249 h 1.05401 c 0.16407,0 0.2635,-0.11932 0.2635,-0.2635 0,-0.21378 -0.12429,-0.31819 -0.2635,-0.31819 h -1.38214 c -0.21876,0 -0.28339,0.18893 -0.28339,0.40768 v 2.92835 c 0,0.20384 0.0597,0.39277 0.28836,0.39277 h 1.32745 c 0.17898,0 0.33311,-0.0994 0.33311,-0.28836 z"
           data-paper-data="{&quot;glyphName&quot;:&quot;E&quot;,&quot;glyphIndex&quot;:34,&quot;lastGlyphOfWord&quot;:true,&quot;word&quot;:5}"
           id="path1935"
           style="fill:#262626;fill-opacity:1" />
      </g>
      <g
         data-paper-data="{&quot;stacked&quot;:true,&quot;isPrimaryText&quot;:true}"
         id="g1957"
         style="fill:#262626;fill-opacity:1">
        <path
           d="M 261.00509,169.33331 H 250.4691 v 50.64073 h 10.53599 v -13.39091 l 5.64185,-5.64185 18.96479,19.03276 h 14.2066 l -25.69422,-25.7622 24.87854,-24.87854 H 284.932 l -23.9269,23.9269 z"
           data-paper-data="{&quot;glyphName&quot;:&quot;K&quot;,&quot;glyphIndex&quot;:0,&quot;firstGlyphOfWord&quot;:true,&quot;word&quot;:1,&quot;line&quot;:1,&quot;firstGlyphOfFirstLine&quot;:true}"
           fill="#ffffff"
           id="path1939"
           style="fill:#262626;fill-opacity:1" />
        <path
           d="m 335.64069,219.97404 v -9.51638 h -20.86806 v -12.64319 h 19.03276 v -9.51638 h -19.03276 v -9.44841 h 16.38177 v -9.51638 h -26.91776 v 50.64073 z"
           data-paper-data="{&quot;glyphName&quot;:&quot;E&quot;,&quot;glyphIndex&quot;:1,&quot;word&quot;:1,&quot;line&quot;:1}"
           fill="#ffffff"
           id="path1941"
           style="fill:#262626;fill-opacity:1" />
        <path
           d="m 343.18582,169.33331 v 50.64073 h 30.92823 v -9.51638 h -20.39224 v -41.12435 z"
           data-paper-data="{&quot;glyphName&quot;:&quot;L&quot;,&quot;glyphIndex&quot;:2,&quot;word&quot;:1,&quot;line&quot;:1}"
           fill="#ffffff"
           id="path1943"
           style="fill:#262626;fill-opacity:1" />
        <path
           d="m 411.36388,219.97404 v -9.51638 h -20.86806 v -12.64319 h 19.03276 v -9.51638 h -19.03276 v -9.44841 h 16.38177 v -9.51638 h -26.91776 v 50.64073 z"
           data-paper-data="{&quot;glyphName&quot;:&quot;E&quot;,&quot;glyphIndex&quot;:3,&quot;word&quot;:1,&quot;line&quot;:1}"
           fill="#ffffff"
           id="path1945"
           style="fill:#262626;fill-opacity:1" />
        <path
           d="m 454.93531,198.63016 -36.02629,-30.24849 v 51.59237 h 10.53599 v -29.09293 l 36.02629,29.9766 v -51.5244 h -10.53599 z"
           data-paper-data="{&quot;glyphName&quot;:&quot;N&quot;,&quot;glyphIndex&quot;:4,&quot;lastGlyphOfWord&quot;:true,&quot;word&quot;:1,&quot;line&quot;:1,&quot;lastGlyphOfFirstLine&quot;:true}"
           fill="#ffffff"
           id="path1947"
           style="fill:#262626;fill-opacity:1" />
        <path
           d="m 261.00509,284.92888 v -22.15957 h 19.03276 v -9.51638 h -19.03276 v -9.44841 h 16.38177 v -9.51638 H 250.4691 v 50.64073 z"
           data-paper-data="{&quot;glyphName&quot;:&quot;F&quot;,&quot;glyphIndex&quot;:5,&quot;firstGlyphOfWord&quot;:true,&quot;word&quot;:2,&quot;line&quot;:2,&quot;firstGlyphOfSecondLine&quot;:true}"
           id="path1949"
           style="fill:#262626;fill-opacity:1" />
        <path
           d="m 297.43923,234.28814 h -10.53599 v 50.64073 h 10.53599 z"
           data-paper-data="{&quot;glyphName&quot;:&quot;I&quot;,&quot;glyphIndex&quot;:6,&quot;word&quot;:2,&quot;line&quot;:2}"
           id="path1951"
           style="fill:#262626;fill-opacity:1" />
        <path
           d="m 307.09155,234.28814 v 50.64073 h 30.92823 v -9.51638 h -20.39224 v -41.12435 z"
           data-paper-data="{&quot;glyphName&quot;:&quot;L&quot;,&quot;glyphIndex&quot;:7,&quot;word&quot;:2,&quot;line&quot;:2}"
           id="path1953"
           style="fill:#262626;fill-opacity:1" />
        <path
           d="m 380.63957,284.92888 h 11.48763 l -26.78181,-51.5244 -26.71384,51.5244 h 10.87586 l 3.26276,-6.79741 h 24.53866 z m -15.70202,-32.0838 7.74905,15.77 h -15.36216 z"
           data-paper-data="{&quot;glyphName&quot;:&quot;A&quot;,&quot;glyphIndex&quot;:8,&quot;lastGlyphOfWord&quot;:true,&quot;word&quot;:2,&quot;line&quot;:2,&quot;lastGlyphOfSecondLine&quot;:true}"
           id="path1955"
           style="fill:#262626;fill-opacity:1" />
      </g>
      <g
         data-paper-data="{&quot;fillRule&quot;:&quot;nonzero&quot;,&quot;fillRuleOriginal&quot;:&quot;nonzero&quot;,&quot;isIcon&quot;:true,&quot;iconStyle&quot;:&quot;standalone&quot;,&quot;selectedEffects&quot;:{&quot;container&quot;:&quot;&quot;,&quot;transformation&quot;:&quot;&quot;,&quot;pattern&quot;:&quot;&quot;},&quot;bounds&quot;:{&quot;x&quot;:84.5287005246373,&quot;y&quot;:151.94915035521512,&quot;width&quot;:133.1186440141759,&quot;height&quot;:166.10169928956975},&quot;iconType&quot;:&quot;icon&quot;,&quot;rawIconId&quot;:&quot;9cb2e2c2-0317-4713-b08a-0732e6ed572b&quot;,&quot;isDetailed&quot;:false,&quot;suitableAsStandaloneIcon&quot;:true}"
         id="g1961"
         style="fill:#262626;fill-opacity:1">
        <path
           d="m 187.98633,317.81357 -46.27119,-78.0678 h 29.42373 l 46.50848,78.0678 z M 84.5287,318.05085 h 26.57627 V 151.94915 H 84.5287 Z m 33.22034,-97.28814 v 35.11864 l 59.79661,-62.40678 V 158.8305 Z m 66.44068,-68.57628 v 34.40678 l 32.98306,-34.40678 z"
           data-paper-data="{&quot;isPathIcon&quot;:true}"
           id="path1959"
           style="fill:#262626;fill-opacity:1" />
      </g>
    </g>
  </g>
</svg>
