<svg xmlns="http://www.w3.org/2000/svg" width="24" height="28.322" viewBox="0 0 24 28.322">
  <g id="Icon_feather-arrow-up" data-name="Icon feather-arrow-up" transform="translate(30 29.402) rotate(180)">
    <path id="Tracé_234" data-name="Tracé 234" d="M18,29.4a1.5,1.5,0,0,1-1.5-1.5V7.5a1.5,1.5,0,0,1,3,0V27.9A1.5,1.5,0,0,1,18,29.4Z" fill="#fff"/>
    <path id="Tracé_235" data-name="Tracé 235" d="M28.5,19.5a1.5,1.5,0,0,1-1.061-.439L18,9.621,8.561,19.061a1.5,1.5,0,0,1-2.121-2.121l10.5-10.5a1.5,1.5,0,0,1,2.121,0l10.5,10.5A1.5,1.5,0,0,1,28.5,19.5Z" transform="translate(0 -4.92)" fill="#fff"/>
  </g>
</svg>
